<?xml version="1.0" standalone="no"?><!DOCTYPE svg PUBLIC "-//W3C//DTD SVG 1.1//EN" "http://www.w3.org/Graphics/SVG/1.1/DTD/svg11.dtd"><svg t="1704772091126" class="icon" viewBox="0 0 1024 1024" version="1.1" xmlns="http://www.w3.org/2000/svg" p-id="11635" xmlns:xlink="http://www.w3.org/1999/xlink" width="200" height="200"><path d="M897.024 126.976v770.048H126.976V126.976h770.048m65.536-65.536H61.44v901.12h901.12V61.44z" p-id="11636"></path><path d="M199.23968 777.138176l169.576448-169.5744 46.340096 46.338048-169.5744 169.578496z" p-id="11637"></path><path d="M170.8032 786.6368h240.0256v65.536H170.8032z" p-id="11638"></path><path d="M170.668032 852.035584v-240.0256h65.536v240.0256zM778.469376 823.67488l-169.578496-169.578496 46.340096-46.340096 169.578496 169.578496z" p-id="11639"></path><path d="M787.68128 852.103168v-240.0256h65.536v240.0256z" p-id="11640"></path><path d="M853.129216 852.099072h-240.0256v-65.536h240.0256zM824.653824 246.767616l-169.576448 169.578496-46.340096-46.340096 169.576448-169.578496z" p-id="11641"></path><path d="M853.245952 237.408256h-240.0256v-65.536h240.0256z" p-id="11642"></path><path d="M853.159936 171.927552v240.0256h-65.536v-240.0256zM245.682176 200.310784l169.576448 169.578496-46.340096 46.340096-169.576448-169.578496z" p-id="11643"></path><path d="M236.161024 171.804672v240.0256h-65.536v-240.0256z" p-id="11644"></path><path d="M170.8032 171.8272h240.0256v65.536H170.8032z" p-id="11645"></path></svg>