<?xml version="1.0" standalone="no"?><!DOCTYPE svg PUBLIC "-//W3C//DTD SVG 1.1//EN" "http://www.w3.org/Graphics/SVG/1.1/DTD/svg11.dtd"><svg t="1704706146134" class="icon" viewBox="0 0 1024 1024" version="1.1" xmlns="http://www.w3.org/2000/svg" p-id="4992" xmlns:xlink="http://www.w3.org/1999/xlink" width="200" height="200"><path d="M798.72 354.986667l-259.413333-310.613334a32.085333 32.085333 0 0 0-51.2 0l-259.413334 310.613334a391.168 391.168 0 0 0 0 498.346666 355.669333 355.669333 0 0 0 283.306667 136.533334 375.466667 375.466667 0 0 0 286.72-133.12 395.946667 395.946667 0 0 0 0-501.76z m-54.613333 457.386666A307.2 307.2 0 0 1 512 921.6a307.2 307.2 0 0 1-232.106667-109.226667 324.266667 324.266667 0 0 1 0-413.013333L512 122.88l232.106667 279.893333a311.296 311.296 0 0 1 0 409.6z m-259.413334-276.48c0-71.68-27.306667-92.16-71.68-92.16s-71.68 20.48-71.68 92.16 27.306667 92.16 71.68 92.16 71.68-20.48 71.68-92.16z m-98.986666 0c0-44.373333 6.826667-54.613333 27.306666-54.613333s27.306667 10.24 27.306667 54.613333-6.826667 54.613333-27.306667 54.613334-27.306667-10.24-27.306666-54.613334z m197.973333-88.746666l-187.733333 331.093333h44.373333l187.733333-331.093333z m27.306667 157.013333c-44.373333 0-71.68 20.48-71.68 92.16s27.306667 92.16 71.68 92.16 71.68-20.48 71.68-92.16-27.306667-92.16-71.68-92.16z m0 146.773333c-20.48 0-27.306667-10.24-27.306667-54.613333s6.826667-54.613333 27.306667-54.613333 27.306667 10.24 27.306666 54.613333-6.826667 54.613333-27.306666 54.613333z" p-id="4993"></path></svg>